<?xml version="1.0" encoding="UTF-8" standalone="no"?>
<!-- Created with Inkscape (http://www.inkscape.org/) -->

<svg
   width="720"
   height="720"
   viewBox="0 0 720 720"
   version="1.1"
   id="svg1"
   xml:space="preserve"
   sodipodi:docname="logodev.svg"
   inkscape:export-filename="Desktop/logodev.png"
   inkscape:export-xdpi="96"
   inkscape:export-ydpi="96"
   xmlns:inkscape="http://www.inkscape.org/namespaces/inkscape"
   xmlns:sodipodi="http://sodipodi.sourceforge.net/DTD/sodipodi-0.dtd"
   xmlns="http://www.w3.org/2000/svg"
   xmlns:svg="http://www.w3.org/2000/svg"><sodipodi:namedview
     id="namedview1"
     pagecolor="#ffffff"
     bordercolor="#111111"
     borderopacity="1"
     inkscape:showpageshadow="0"
     inkscape:pageopacity="0"
     inkscape:pagecheckerboard="1"
     inkscape:deskcolor="#d1d1d1"
     inkscape:document-units="px"><inkscape:page
       x="0"
       y="0"
       width="720"
       height="720"
       id="page2"
       margin="0"
       bleed="0" /></sodipodi:namedview><defs
     id="defs1" /><g
     inkscape:label="Layer 1"
     inkscape:groupmode="layer"
     id="layer1"><path
       style="fill:#ffffff;fill-opacity:1;stroke:none"
       d="m 339.22406,553.04956 10e-4,-56.63264 -10e-4,-127.04079 h -77.92497 v 36.73469 h 39.75764 V 507.1312 C 205.34298,485.80932 172.59136,367.4582 222.91705,292.84554 248.1071,255.49885 293.55907,234.68724 339.22406,234.68229 V 197.9476 c -142.19995,0.37761 -225.64964,154.89439 -154.23629,270.9183 23.58639,38.32033 62.41653,63.8967 106.52713,75.87515 15.67839,4.25749 32.01285,4.71011 47.70916,8.30851 M 361.48834,197.9476 v 355.10196 c 22.36872,-5.12574 45.85048,-5.01074 68.38314,-10.9469 49.03701,-12.91884 90.07153,-46.15668 109.73108,-91.6041 -12.23071,0 -31.39834,-3.52833 -42.77256,0.92356 -11.031,4.31755 -20.71736,22.88099 -30.38149,30.50836 -19.98258,15.77098 -42.51903,21.69407 -66.79284,28.26194 V 237.74351 c 22.21818,7.25331 44.09876,12.12223 63.61223,25.63186 10.91122,7.55413 20.36394,25.42027 32.08216,30.07722 10.50277,4.17387 28.17483,0.92356 39.48159,0.92356 -2.83468,-15.30481 -14.8073,-28.33902 -25.01422,-39.79591 C 474.24415,214.65037 414.7495,197.9476 361.48834,197.9476 Z"
       id="path1" /></g></svg>
